<svg xmlns="http://www.w3.org/2000/svg" width="1200" height="1500" viewBox="0 0 1200 1500" role="img">
<defs>
<filter id="n"><feTurbulence type="fractalNoise" baseFrequency="0.9" numOctaves="2" stitchTiles="stitch"/><feColorMatrix type="matrix" values="0 0 0 0 0.13 0 0 0 0 0.14 0 0 0 0 0.13 0 0 0 0.05 0"/></filter>
<radialGradient id="light" cx="30%" cy="18%" r="90%"><stop offset="0%" stop-color="#FFFFFF" stop-opacity="0.26"/><stop offset="60%" stop-color="#FFFFFF" stop-opacity="0"/></radialGradient>
</defs>
<rect width="1200" height="1500" fill="#E7E3DC"/>
<rect width="1200" height="1500" fill="url(#light)"/>
<g stroke="#222522" stroke-opacity="0.07" stroke-width="1"><line x1="100" y1="0" x2="100" y2="1500"/><line x1="200" y1="0" x2="200" y2="1500"/><line x1="300" y1="0" x2="300" y2="1500"/><line x1="400" y1="0" x2="400" y2="1500"/><line x1="500" y1="0" x2="500" y2="1500"/><line x1="600" y1="0" x2="600" y2="1500"/><line x1="700" y1="0" x2="700" y2="1500"/><line x1="800" y1="0" x2="800" y2="1500"/><line x1="900" y1="0" x2="900" y2="1500"/><line x1="1000" y1="0" x2="1000" y2="1500"/><line x1="1100" y1="0" x2="1100" y2="1500"/><line x1="0" y1="100" x2="1200" y2="100"/><line x1="0" y1="200" x2="1200" y2="200"/><line x1="0" y1="300" x2="1200" y2="300"/><line x1="0" y1="400" x2="1200" y2="400"/><line x1="0" y1="500" x2="1200" y2="500"/><line x1="0" y1="600" x2="1200" y2="600"/><line x1="0" y1="700" x2="1200" y2="700"/><line x1="0" y1="800" x2="1200" y2="800"/><line x1="0" y1="900" x2="1200" y2="900"/><line x1="0" y1="1000" x2="1200" y2="1000"/><line x1="0" y1="1100" x2="1200" y2="1100"/><line x1="0" y1="1200" x2="1200" y2="1200"/><line x1="0" y1="1300" x2="1200" y2="1300"/><line x1="0" y1="1400" x2="1200" y2="1400"/></g>
<rect x="0" y="0" width="624" height="690" fill="#D8CFC1" fill-opacity="0.95"/><rect x="624" y="690" width="576" height="810" fill="#DECDAE" fill-opacity="0.9"/><line x1="624" y1="0" x2="624" y2="1500" stroke="#222522" stroke-opacity="0.65" stroke-width="3"/><line x1="0" y1="690" x2="1200" y2="690" stroke="#222522" stroke-opacity="0.65" stroke-width="3"/><circle cx="624" cy="690" r="168" fill="none" stroke="#C84E3B" stroke-width="3.5" stroke-opacity="0.95"/><circle cx="624" cy="690" r="7" fill="#C84E3B"/><g stroke="#6D746F" stroke-opacity="0.8" stroke-width="1.5"><line x1="120" y1="1436" x2="600" y2="1436"/><line x1="120" y1="1426" x2="120" y2="1446"/><line x1="600" y1="1426" x2="600" y2="1446"/></g>
<rect width="1200" height="1500" filter="url(#n)"/>
<path d="M 54 28 L 28 28 L 28 54 M 1146 28 L 1172 28 L 1172 54 M 54 1472 L 28 1472 L 28 1446 M 1146 1472 L 1172 1472 L 1172 1446" fill="none" stroke="#222522" stroke-opacity="0.75" stroke-width="2"/>
<g font-family="IBM Plex Mono, SFMono-Regular, Menlo, monospace" font-size="28" letter-spacing="2" fill="#222522" fill-opacity="0.85"><text x="44" y="1458">PLACEHOLDER · NARZĘDZIA POMIAROWE</text><text x="1156" y="1458" text-anchor="end">4:5</text></g>
</svg>
