<svg xmlns="http://www.w3.org/2000/svg" width="1500" height="1000" viewBox="0 0 1500 1000" role="img">
<defs>
<filter id="n"><feTurbulence type="fractalNoise" baseFrequency="0.9" numOctaves="2" stitchTiles="stitch"/><feColorMatrix type="matrix" values="0 0 0 0 0.13 0 0 0 0 0.14 0 0 0 0 0.13 0 0 0 0.05 0"/></filter>
<radialGradient id="light" cx="30%" cy="18%" r="90%"><stop offset="0%" stop-color="#FFFFFF" stop-opacity="0.26"/><stop offset="60%" stop-color="#FFFFFF" stop-opacity="0"/></radialGradient>
</defs>
<rect width="1500" height="1000" fill="#DECDAE"/>
<rect width="1500" height="1000" fill="url(#light)"/>
<g stroke="#222522" stroke-opacity="0.07" stroke-width="1"><line x1="83" y1="0" x2="83" y2="1000"/><line x1="166" y1="0" x2="166" y2="1000"/><line x1="249" y1="0" x2="249" y2="1000"/><line x1="332" y1="0" x2="332" y2="1000"/><line x1="415" y1="0" x2="415" y2="1000"/><line x1="498" y1="0" x2="498" y2="1000"/><line x1="581" y1="0" x2="581" y2="1000"/><line x1="664" y1="0" x2="664" y2="1000"/><line x1="747" y1="0" x2="747" y2="1000"/><line x1="830" y1="0" x2="830" y2="1000"/><line x1="913" y1="0" x2="913" y2="1000"/><line x1="996" y1="0" x2="996" y2="1000"/><line x1="1079" y1="0" x2="1079" y2="1000"/><line x1="1162" y1="0" x2="1162" y2="1000"/><line x1="1245" y1="0" x2="1245" y2="1000"/><line x1="1328" y1="0" x2="1328" y2="1000"/><line x1="1411" y1="0" x2="1411" y2="1000"/><line x1="1494" y1="0" x2="1494" y2="1000"/><line x1="0" y1="83" x2="1500" y2="83"/><line x1="0" y1="166" x2="1500" y2="166"/><line x1="0" y1="249" x2="1500" y2="249"/><line x1="0" y1="332" x2="1500" y2="332"/><line x1="0" y1="415" x2="1500" y2="415"/><line x1="0" y1="498" x2="1500" y2="498"/><line x1="0" y1="581" x2="1500" y2="581"/><line x1="0" y1="664" x2="1500" y2="664"/><line x1="0" y1="747" x2="1500" y2="747"/><line x1="0" y1="830" x2="1500" y2="830"/><line x1="0" y1="913" x2="1500" y2="913"/><line x1="0" y1="996" x2="1500" y2="996"/></g>
<line x1="0" y1="0" x2="1500" y2="0" stroke="#6D746F" stroke-opacity="0.6" stroke-width="2"/><line x1="591" y1="0" x2="591" y2="133" stroke="#6D746F" stroke-opacity="0.55" stroke-width="2"/><line x1="0" y1="133" x2="1500" y2="133" stroke="#6D746F" stroke-opacity="0.6" stroke-width="2"/><line x1="436" y1="133" x2="436" y2="266" stroke="#6D746F" stroke-opacity="0.55" stroke-width="2"/><rect x="0" y="136" width="1500" height="127" fill="#DECDAE" fill-opacity="0.9"/><line x1="0" y1="266" x2="1500" y2="266" stroke="#6D746F" stroke-opacity="0.6" stroke-width="2"/><line x1="886" y1="266" x2="886" y2="399" stroke="#6D746F" stroke-opacity="0.55" stroke-width="2"/><line x1="0" y1="399" x2="1500" y2="399" stroke="#6D746F" stroke-opacity="0.6" stroke-width="2"/><line x1="365" y1="399" x2="365" y2="532" stroke="#6D746F" stroke-opacity="0.55" stroke-width="2"/><line x1="0" y1="532" x2="1500" y2="532" stroke="#6D746F" stroke-opacity="0.6" stroke-width="2"/><line x1="782" y1="532" x2="782" y2="665" stroke="#6D746F" stroke-opacity="0.55" stroke-width="2"/><rect x="0" y="535" width="1500" height="127" fill="#DECDAE" fill-opacity="0.9"/><line x1="0" y1="665" x2="1500" y2="665" stroke="#6D746F" stroke-opacity="0.6" stroke-width="2"/><line x1="629" y1="665" x2="629" y2="798" stroke="#6D746F" stroke-opacity="0.55" stroke-width="2"/><line x1="0" y1="798" x2="1500" y2="798" stroke="#6D746F" stroke-opacity="0.6" stroke-width="2"/><line x1="352" y1="798" x2="352" y2="931" stroke="#6D746F" stroke-opacity="0.55" stroke-width="2"/><line x1="0" y1="931" x2="1500" y2="931" stroke="#6D746F" stroke-opacity="0.6" stroke-width="2"/><line x1="757" y1="931" x2="757" y2="1064" stroke="#6D746F" stroke-opacity="0.55" stroke-width="2"/><rect x="0" y="934" width="1500" height="127" fill="#DECDAE" fill-opacity="0.9"/><line x1="150" y1="860" x2="630" y2="860" stroke="#C84E3B" stroke-width="2.5"/><g stroke="#6D746F" stroke-opacity="0.8" stroke-width="1.5"><line x1="825" y1="860" x2="1350" y2="860"/><line x1="825" y1="850" x2="825" y2="870"/><line x1="1350" y1="850" x2="1350" y2="870"/></g>
<rect width="1500" height="1000" filter="url(#n)"/>
<path d="M 54 28 L 28 28 L 28 54 M 1446 28 L 1472 28 L 1472 54 M 54 972 L 28 972 L 28 946 M 1446 972 L 1472 972 L 1472 946" fill="none" stroke="#222522" stroke-opacity="0.75" stroke-width="2"/>
<g font-family="IBM Plex Mono, SFMono-Regular, Menlo, monospace" font-size="23" letter-spacing="2" fill="#222522" fill-opacity="0.85"><text x="44" y="958">PLACEHOLDER · PODŁOGA</text><text x="1456" y="958" text-anchor="end">3:2</text></g>
</svg>
