<svg xmlns="http://www.w3.org/2000/svg" width="1280" height="800" viewBox="0 0 1280 800" role="img">
<defs>
<filter id="n"><feTurbulence type="fractalNoise" baseFrequency="0.9" numOctaves="2" stitchTiles="stitch"/><feColorMatrix type="matrix" values="0 0 0 0 0.13 0 0 0 0 0.14 0 0 0 0 0.13 0 0 0 0.05 0"/></filter>
<radialGradient id="light" cx="30%" cy="18%" r="90%"><stop offset="0%" stop-color="#FFFFFF" stop-opacity="0.26"/><stop offset="60%" stop-color="#FFFFFF" stop-opacity="0"/></radialGradient>
</defs>
<rect width="1280" height="800" fill="#F4F1EA"/>
<rect width="1280" height="800" fill="url(#light)"/>
<g stroke="#222522" stroke-opacity="0.07" stroke-width="1"><line x1="67" y1="0" x2="67" y2="800"/><line x1="134" y1="0" x2="134" y2="800"/><line x1="201" y1="0" x2="201" y2="800"/><line x1="268" y1="0" x2="268" y2="800"/><line x1="335" y1="0" x2="335" y2="800"/><line x1="402" y1="0" x2="402" y2="800"/><line x1="469" y1="0" x2="469" y2="800"/><line x1="536" y1="0" x2="536" y2="800"/><line x1="603" y1="0" x2="603" y2="800"/><line x1="670" y1="0" x2="670" y2="800"/><line x1="737" y1="0" x2="737" y2="800"/><line x1="804" y1="0" x2="804" y2="800"/><line x1="871" y1="0" x2="871" y2="800"/><line x1="938" y1="0" x2="938" y2="800"/><line x1="1005" y1="0" x2="1005" y2="800"/><line x1="1072" y1="0" x2="1072" y2="800"/><line x1="1139" y1="0" x2="1139" y2="800"/><line x1="1206" y1="0" x2="1206" y2="800"/><line x1="1273" y1="0" x2="1273" y2="800"/><line x1="0" y1="67" x2="1280" y2="67"/><line x1="0" y1="134" x2="1280" y2="134"/><line x1="0" y1="201" x2="1280" y2="201"/><line x1="0" y1="268" x2="1280" y2="268"/><line x1="0" y1="335" x2="1280" y2="335"/><line x1="0" y1="402" x2="1280" y2="402"/><line x1="0" y1="469" x2="1280" y2="469"/><line x1="0" y1="536" x2="1280" y2="536"/><line x1="0" y1="603" x2="1280" y2="603"/><line x1="0" y1="670" x2="1280" y2="670"/><line x1="0" y1="737" x2="1280" y2="737"/></g>
<rect x="205" y="144" width="717" height="448" fill="#FBF9F3" fill-opacity="0.9" stroke="#222522" stroke-opacity="0.85" stroke-width="3.5"/><g stroke="#222522" stroke-opacity="0.7" stroke-width="2.5"><line x1="506" y1="144" x2="506" y2="413"/><line x1="205" y1="413" x2="650" y2="413"/><line x1="650" y1="301" x2="922" y2="301"/></g><path d="M 506 467 a 52 52 0 0 1 52 -52" fill="none" stroke="#6D746F" stroke-opacity="0.7" stroke-width="1.5"/><circle cx="779" cy="493" r="6" fill="#C84E3B"/><g stroke="#6D746F" stroke-opacity="0.8" stroke-width="1.5"><line x1="205" y1="102" x2="922" y2="102"/><line x1="205" y1="92" x2="205" y2="112"/><line x1="922" y1="92" x2="922" y2="112"/></g>
<g stroke="#6D746F" stroke-opacity="0.8" stroke-width="1.5"><line x1="968" y1="144" x2="968" y2="592"/><line x1="958" y1="144" x2="978" y2="144"/><line x1="958" y1="592" x2="978" y2="592"/></g>
<g stroke="#6D746F" stroke-opacity="0.8" stroke-width="1.5"><line x1="205" y1="638" x2="506" y2="638"/><line x1="205" y1="628" x2="205" y2="648"/><line x1="506" y1="628" x2="506" y2="648"/></g>
<rect width="1280" height="800" filter="url(#n)"/>
<path d="M 54 28 L 28 28 L 28 54 M 1226 28 L 1252 28 L 1252 54 M 54 772 L 28 772 L 28 746 M 1226 772 L 1252 772 L 1252 746" fill="none" stroke="#222522" stroke-opacity="0.75" stroke-width="2"/>
<g font-family="IBM Plex Mono, SFMono-Regular, Menlo, monospace" font-size="18" letter-spacing="2" fill="#222522" fill-opacity="0.85"><text x="44" y="758">PLACEHOLDER · ETAP 01 · ROZMOWA</text><text x="1236" y="758" text-anchor="end">16:10</text></g>
</svg>
